<?xml version="1.0" standalone="no"?>
<!DOCTYPE svg PUBLIC "-//W3C//DTD SVG 20010904//EN"
 "http://www.w3.org/TR/2001/REC-SVG-20010904/DTD/svg10.dtd">
<svg version="1.0" xmlns="http://www.w3.org/2000/svg"
 width="148.000000pt" height="148.000000pt" viewBox="0 0 148.000000 148.000000"
 preserveAspectRatio="xMidYMid meet">
<metadata>
Created by potrace 1.14, written by Peter Selinger 2001-2017
</metadata>
<g transform="translate(0.000000,148.000000) scale(0.100000,-0.100000)"
fill="#000000" stroke="none">
<path d="M665 1450 c-16 -5 -61 -16 -100 -25 -204 -47 -388 -197 -480 -390
-23 -49 -47 -110 -53 -135 -36 -157 -36 -156 -18 -253 41 -209 129 -359 279
-473 69 -52 202 -119 260 -129 20 -4 37 -11 37 -16 0 -5 68 -9 150 -9 84 0
150 4 150 9 0 5 19 12 41 16 58 10 203 85 274 142 119 97 204 230 247 388 24
90 34 208 20 239 -5 12 -16 52 -26 90 -57 239 -268 453 -506 514 -180 46 -211
50 -275 32z m211 -129 c40 -5 97 -16 128 -26 l56 -18 0 -69 0 -68 -37 18 c-57
29 -100 41 -181 51 -140 18 -257 -17 -344 -101 -83 -82 -121 -182 -120 -326 0
-208 93 -350 261 -399 88 -25 311 -4 311 30 0 27 -103 103 -224 163 -152 77
-206 113 -240 163 -34 49 -46 85 -46 133 0 128 86 221 240 259 69 17 249 15
310 -3 l45 -14 3 -67 c2 -37 1 -67 -1 -67 -3 0 -25 9 -50 20 -61 27 -181 42
-251 30 -122 -20 -170 -66 -163 -158 3 -41 10 -59 32 -82 16 -17 33 -30 38
-30 5 0 21 -8 35 -19 15 -10 78 -45 141 -76 62 -32 128 -70 145 -84 17 -14 26
-19 19 -11 -7 9 -13 43 -15 75 l-3 60 -112 3 -113 3 0 54 0 55 171 0 171 0 -4
-257 c-4 -239 -6 -261 -25 -298 -22 -42 -59 -79 -105 -108 -94 -59 -359 -62
-482 -6 -24 11 -26 17 -26 76 0 34 2 63 4 63 2 0 23 -11 47 -24 108 -60 285
-73 381 -28 26 12 52 30 57 41 10 17 7 17 -42 4 -69 -18 -219 -17 -292 3 -210
54 -345 250 -345 498 0 189 72 339 212 442 115 84 247 114 414 95z"/>
<path d="M1000 552 c0 -5 9 -17 19 -26 11 -10 25 -31 31 -47 7 -16 15 -28 17
-25 3 2 -1 15 -8 28 -16 31 -59 82 -59 70z"/>
<path d="M952 360 c0 -14 2 -19 5 -12 2 6 2 18 0 25 -3 6 -5 1 -5 -13z"/>
</g>
</svg>
